<svg xmlns="http://www.w3.org/2000/svg" width="40.604" height="42.066" viewBox="0 0 40.604 42.066">
  <path id="Path_35" data-name="Path 35" d="M43.825,4.853a1.225,1.225,0,0,0-.866-.359h-.012a3
  .227,3.227,0,0,1-2.294-.95,3.252,3.252,0,0,1-.961-2.319A1.226,1.226,0,0,0,38.466,0H9.3A1.225,1.225,0,0,0,8.073,1.
  226a3.251,3.251,0,0,1-.961,2.319,3.227,3.227,0,0,1-2.294.95H4.805A1.225,1.225,0,0,0,3.58,5.723a45.781,45.781,0,0,0,3.33,1
  7.068A40.2,40.2,0,0,0,23.233,41.88a1.225,1.225,0,0,0,1.3,0A40.2,40.2,0,0,0,40.854,22.791a45.78,45.78,0,0,0,3.33-17.068A1.
  225,1.225,0,0,0,43.825,4.853ZM23.882,39.389C9.081,29.8,6.28,15.33,6.047,6.812a5.663,5.663,0,0,0,2.8-1.533A5.684,5.684,0,0,
  0,10.393,2.45H37.371a5.684,5.684,0,0,0,1.551,2.829,5.663,5.663,0,0,0,2.8,1.533C41.484,15.33,38.682,29.8,23.882,39.389Z" trans
  form="translate(-3.58 0)" fill="#111"/>
</svg>
